<svg height="512pt" viewBox="0 -38 512.00065 512" width="512pt" xmlns="http://www.w3.org/2000/svg"><path d="m460.042969 204.042969c0 112.6875-91.351563 204.042969-204.042969 204.042969-112.6875 0-204.042969-91.355469-204.042969-204.042969 0-112.691407 91.355469-204.042969 204.042969-204.042969 112.691406 0 204.042969 91.351562 204.042969 204.042969zm0 0" fill="#f0c48a"/><path d="m466.210938 395.734375c-56.890626 0-159.523438-46.050781-261.464844-117.316406-65.964844-46.121094-123.015625-96.707031-160.644532-142.449219-27.675781-33.640625-56.78125-79.300781-38.277343-105.765625 7.292969-10.4375 20.742187-15.726563 39.964843-15.726563 56.894532 0 159.523438 46.050782 261.464844 117.320313 65.964844 46.117187 123.019532 96.707031 160.644532 142.445313 27.675781 33.640624 56.785156 79.300781 38.28125 105.769531-7.296876 10.433593-20.742188 15.722656-39.96875 15.722656zm-420.421876-369.535156c-15.171874 0-25.386718 3.605469-30.359374 10.71875-10.828126 15.484375 3.273437 49.730469 37.722656 91.605469 36.96875 44.941406 93.191406 94.761718 158.308594 140.285156 49.738281 34.773437 100.460937 64.058594 146.679687 84.6875 44.730469 19.964844 82.101563 30.519531 108.070313 30.519531 15.171874 0 25.386718-3.609375 30.359374-10.722656 10.828126-15.484375-3.273437-49.730469-37.722656-91.605469-36.96875-44.9375-93.191406-94.761719-158.308594-140.285156-49.738281-34.773438-100.460937-64.058594-146.679687-84.6875-44.730469-19.964844-82.101563-30.515625-108.070313-30.515625zm0 0" fill="#4c4372"/><path d="m45.792969 395.734375c-.003907 0 0 0-.003907 0-19.226562 0-32.671874-5.289063-39.96875-15.722656-18.503906-26.46875 10.605469-72.125 38.28125-105.769531 37.628907-45.738282 94.679688-96.328126 160.644532-142.445313 101.941406-71.269531 204.574218-117.320313 261.464844-117.320313 19.226562 0 32.671874 5.289063 39.96875 15.726563 18.503906 26.464844-10.605469 72.125-38.28125 105.765625-37.625 45.742188-94.679688 96.332031-160.644532 142.449219-101.9375 71.265625-204.566406 117.316406-261.460937 117.316406zm420.417969-369.535156c-25.96875 0-63.335938 10.550781-108.070313 30.515625-46.21875 20.628906-96.9375 49.914062-146.675781 84.6875-65.117188 45.523437-121.339844 95.347656-158.3125 140.285156-34.445313 41.875-48.550782 76.121094-37.722656 91.605469 4.972656 7.113281 15.1875 10.722656 30.363281 10.722656 25.964843 0 63.335937-10.554687 108.066406-30.519531 46.21875-20.628906 96.941406-49.910156 146.679687-84.6875 65.117188-45.523438 121.339844-95.34375 158.308594-140.285156 34.449219-41.875 48.550782-76.121094 37.726563-91.605469-4.972657-7.113281-15.1875-10.71875-30.363281-10.71875zm0 0" fill="#4c4372"/><path d="m139.441406 20.617188 37.15625 17.621093-17.621094 37.15625-37.15625-17.621093zm0 0" fill="#fd919e"/><path d="m418.757812 361.574219 40.246094 8.453125-8.449218 40.246094-40.246094-8.453126zm0 0" fill="#e8677d"/><path d="m39.027344 257.539062 31.882812 25.972657-25.972656 31.882812-31.882812-25.972656zm0 0" fill="#fd919e"/><path d="m446.902344 119.992188 31.882812 25.972656-25.972656 31.882812-31.882812-25.972656zm0 0" fill="#e8677d"/><path d="m227.1875 187.492188h57.625v34.507812h-57.625zm0 0" fill="#d3e6f8"/><path d="m284.8125 227.859375h-57.625c-3.234375 0-5.859375-2.621094-5.859375-5.859375v-34.507812c0-3.238282 2.625-5.863282 5.859375-5.863282h57.625c3.238281 0 5.859375 2.625 5.859375 5.863282v34.507812c0 3.238281-2.621094 5.859375-5.859375 5.859375zm-51.765625-11.71875h45.90625v-22.789063h-45.90625zm0 0" fill="#4c4372"/><path d="m167.195312 222h177.613282v207.304688h-177.613282zm0 0" fill="#a4cff2"/><path d="m320.027344 222h24.78125v207.304688h-24.78125zm0 0" fill="#7babf1"/><path d="m366.09375 429.304688c-11.757812 0-21.285156-9.53125-21.285156-21.285157v-186.019531h9.011718c18.53125 0 33.554688 15.027344 33.554688 33.558594v152.460937c0 11.753907-9.527344 21.285157-21.28125 21.285157zm0 0" fill="#7babf1"/><path d="m145.910156 429.304688c-11.757812 0-21.285156-9.53125-21.285156-21.285157v-152.460937c0-18.535156 15.023438-33.558594 33.558594-33.558594h9.011718v186.019531c0 11.753907-9.53125 21.285157-21.285156 21.285157zm0 0" fill="#a4cff2"/><g fill="#4c4372"><path d="m344.808594 435.164062h-177.613282c-3.238281 0-5.863281-2.625-5.863281-5.859374v-207.304688c0-3.238281 2.625-5.859375 5.863281-5.859375h177.613282c3.234375 0 5.859375 2.621094 5.859375 5.859375v207.304688c0 3.238281-2.625 5.859374-5.859375 5.859374zm-171.753906-11.722656h165.890624v-195.582031h-165.890624zm0 0"/><path d="m366.09375 435.164062c-14.96875 0-27.148438-12.179687-27.148438-27.144531v-186.019531c0-3.238281 2.625-5.859375 5.863282-5.859375h9.011718c21.734376 0 39.417969 17.683594 39.417969 39.417969v152.460937c0 14.96875-12.179687 27.144531-27.144531 27.144531zm-15.425781-207.304687v180.160156c0 8.503907 6.917969 15.421875 15.425781 15.421875 8.503906 0 15.421875-6.917968 15.421875-15.421875v-152.460937c0-15.273438-12.421875-27.699219-27.695313-27.699219zm0 0"/><path d="m145.910156 435.164062c-14.96875 0-27.144531-12.179687-27.144531-27.144531v-152.460937c0-21.734375 17.679687-39.417969 39.417969-39.417969h9.011718c3.234376 0 5.859376 2.621094 5.859376 5.859375v186.019531c0 14.96875-12.175782 27.144531-27.144532 27.144531zm12.273438-207.304687c-15.273438 0-27.699219 12.425781-27.699219 27.699219v152.460937c0 8.503907 6.917969 15.425781 15.425781 15.425781 8.503906 0 15.421875-6.921874 15.421875-15.425781v-180.160156zm0 0"/><path d="m158.980469 81.257812c-.84375 0-1.695313-.179687-2.507813-.566406l-37.15625-17.621094c-2.925781-1.386718-4.171875-4.882812-2.785156-7.804687l17.621094-37.15625c.667968-1.40625 1.863281-2.488281 3.328125-3.007813 1.460937-.523437 3.074219-.441406 4.480469.222657l37.15625 17.621093c1.40625.667969 2.488281 1.863282 3.007812 3.328126.523438 1.464843.441406 3.074218-.222656 4.480468l-17.621094 37.15625c-1.003906 2.113282-3.109375 3.347656-5.300781 3.347656zm-29.347657-26.265624 26.566407 12.597656 12.597656-26.566406-26.566406-12.597657zm0 0"/><path d="m450.527344 416.125c-.398438 0-.804688-.042969-1.210938-.125l-40.242187-8.453125c-3.167969-.664063-5.199219-3.773437-4.53125-6.941406l8.449219-40.246094c.667968-3.167969 3.773437-5.195313 6.941406-4.527344l40.246094 8.449219c3.167968.667969 5.195312 3.773438 4.53125 6.941406l-8.453126 40.246094c-.578124 2.757812-3.015624 4.65625-5.730468 4.65625zm-33.308594-18.84375 28.773438 6.042969 6.042968-28.777344-28.773437-6.042969zm0 0"/><path d="m44.929688 321.25c-1.34375 0-2.652344-.460938-3.699219-1.316406l-31.882813-25.972656c-2.511718-2.046876-2.886718-5.738282-.84375-8.246094l25.976563-31.882813c.980469-1.203125 2.398437-1.972656 3.949219-2.128906 1.546874-.160156 3.089843.304687 4.296874 1.285156l31.878907 25.976563c2.511719 2.042968 2.886719 5.734375.84375 8.242187l-25.976563 31.882813c-.980468 1.207031-2.402344 1.972656-3.949218 2.128906-.195313.023438-.394532.03125-.59375.03125zm-23.636719-32.675781 22.792969 18.570312 18.574218-22.792969-22.796875-18.570312zm0 0"/><path d="m452.792969 183.714844c-1.300781 0-2.609375-.433594-3.695313-1.320313l-31.882812-25.972656c-1.207032-.980469-1.972656-2.402344-2.128906-3.949219-.160157-1.546875.304687-3.089844 1.285156-4.296875l25.972656-31.878906c2.046875-2.511719 5.738281-2.886719 8.246094-.84375l31.882812 25.972656c1.203125.984375 1.96875 2.402344 2.128906 3.949219.15625 1.546875-.304687 3.09375-1.285156 4.296875l-25.976562 31.882813c-1.15625 1.421874-2.84375 2.160156-4.546875 2.160156zm-23.632813-32.675782 22.796875 18.566407 18.570313-22.792969-22.796875-18.570312zm0 0"/></g><path d="m256 200.96875c-35.957031 0-65.105469-29.148438-65.105469-65.105469v-37.671875c0-35.957031 29.148438-65.105468 65.105469-65.105468s65.105469 29.148437 65.105469 65.105468v37.671875c0 35.957031-29.148438 65.105469-65.105469 65.105469zm0 0" fill="#fff"/><path d="m256 33.085938c-3.464844 0-6.863281.277343-10.183594.800781 31.117188 4.890625 54.917969 31.816406 54.917969 64.304687v37.671875c0 32.492188-23.800781 59.417969-54.917969 64.308594 3.316406.519531 6.71875.796875 10.183594.796875 35.957031 0 65.105469-29.148438 65.105469-65.105469v-37.671875c0-35.957031-29.148438-65.105468-65.105469-65.105468zm0 0" fill="#d3e6f8"/><path d="m256 206.828125c-39.128906 0-70.964844-31.832031-70.964844-70.964844v-37.671875c0-39.128906 31.835938-70.964844 70.964844-70.964844s70.964844 31.835938 70.964844 70.964844v37.671875c0 39.128907-31.835938 70.964844-70.964844 70.964844zm0-167.878906c-32.667969 0-59.242188 26.574219-59.242188 59.242187v37.671875c0 32.667969 26.574219 59.242188 59.242188 59.242188s59.246094-26.574219 59.246094-59.242188v-37.671875c0-32.667968-26.578125-59.242187-59.246094-59.242187zm0 0" fill="#4c4372"/></svg>