<svg height="502pt" viewBox="0 0 502.684 502" width="502pt" xmlns="http://www.w3.org/2000/svg"><path d="m177.203125 215.21875v21.441406h-173.199219v-21.441406c0-5.519531 4.476563-10 10-10h153.199219c5.519531 0 10 4.480469 10 10zm0 0" fill="#56c1b3"/><path d="m177.203125 448.097656v39.882813c0 5.519531-4.480469 10-10 10h-153.199219c-5.523437 0-10-4.480469-10-10v-39.882813zm0 0" fill="#56c1b3"/><path d="m4.003906 236.660156h173.199219v211.4375h-173.199219zm0 0" fill="#d8d6d7"/><path d="m177.203125 215.21875v21.441406h-133.199219v-21.441406c0-5.519531 4.476563-10 10-10h113.199219c5.519531 0 10 4.480469 10 10zm0 0" fill="#7befe4"/><path d="m177.203125 448.097656v39.882813c0 5.519531-4.480469 10-10 10h-113.199219c-5.523437 0-10-4.480469-10-10v-39.882813zm0 0" fill="#7befe4"/><path d="m44.003906 236.660156h133.199219v211.4375h-133.199219zm0 0" fill="#fff"/><path d="m112.660156 473.078125v.339844c0 .382812-.019531.761719-.078125 1.140625-.539062 4.039062-4 7.140625-8.199219 7.140625h-27.5625c-4.578124 0-8.277343-3.699219-8.277343-8.28125v-.339844c0-4.179687 3.097656-7.640625 7.140625-8.199219.359375-.058594.757812-.078125 1.136718-.078125h27.5625c4.578126 0 8.277344 3.699219 8.277344 8.277344zm0 0" fill="#d73735"/><path d="m112.660156 473.078125v.339844c0 .382812-.019531.761719-.078125 1.140625-.359375.0625-.738281.082031-1.121093.082031h-27.578126c-4.5625 0-8.28125-3.722656-8.28125-8.28125v-.359375c0-.378906.019532-.761719.082032-1.121094.359375-.058594.757812-.078125 1.136718-.078125h27.5625c4.578126 0 8.277344 3.699219 8.277344 8.277344zm0 0" fill="#f85252"/><path d="m498.683594 215.21875v21.441406h-173.203125v-21.441406c0-5.519531 4.480469-10 10-10h153.203125c5.519531 0 10 4.480469 10 10zm0 0" fill="#56c1b3"/><path d="m498.683594 448.097656v39.882813c0 5.519531-4.480469 10-10 10h-153.203125c-5.519531 0-10-4.480469-10-10v-39.882813zm0 0" fill="#56c1b3"/><path d="m325.480469 236.660156h173.203125v211.4375h-173.203125zm0 0" fill="#d8d6d7"/><path d="m498.683594 215.21875v21.441406h-133.203125v-21.441406c0-5.519531 4.480469-10 10-10h113.203125c5.519531 0 10 4.480469 10 10zm0 0" fill="#7befe4"/><path d="m498.683594 448.097656v39.882813c0 5.519531-4.480469 10-10 10h-113.203125c-5.519531 0-10-4.480469-10-10v-39.882813zm0 0" fill="#7befe4"/><path d="m365.480469 236.660156h133.203125v211.4375h-133.203125zm0 0" fill="#fff"/><path d="m434.140625 473.078125v.339844c0 .382812-.019531.761719-.078125 1.140625-.539062 4.039062-4 7.140625-8.199219 7.140625h-27.5625c-4.578125 0-8.277343-3.699219-8.277343-8.28125v-.339844c0-4.179687 3.097656-7.640625 7.136718-8.199219.363282-.058594.761719-.078125 1.140625-.078125h27.5625c4.578125 0 8.277344 3.699219 8.277344 8.277344zm0 0" fill="#d73735"/><path d="m434.140625 473.078125v.339844c0 .382812-.019531.761719-.078125 1.140625-.359375.0625-.742188.082031-1.121094.082031h-27.578125c-4.582031 0-8.28125-3.722656-8.28125-8.28125v-.359375c0-.378906.019531-.761719.078125-1.121094.363282-.058594.761719-.078125 1.140625-.078125h27.5625c4.578125 0 8.277344 3.699219 8.277344 8.277344zm0 0" fill="#f85252"/><path d="m347.101562 171.222656h-190.539062c-8 0-15.582031-2.542968-21.78125-6.921875-9.21875-6.5-15.378906-17.019531-15.378906-29.257812 0-18.140625 13.300781-33.082031 30.660156-35.761719-7.878906-41.320312 35.160156-74.679688 73.160156-56.160156.019532 0 .019532 0 .019532-.019532 15.519531-31.800781 50.5-45.378906 81.339843-35.742187 12.878907 3.980469 23.679688 11.421875 31.71875 20.941406 16 18.902344 21.222657 46 10.78125 70.5l.019531.019531c15.621094 0 29.859376 9.859376 34.441407 24.78125 7.617187 24.859376-10.761719 47.621094-34.441407 47.621094zm0 0" fill="#1c868e"/><path d="m347.101562 171.222656h-190.539062c-8 0-15.582031-2.542968-21.78125-6.921875-.460938-2.28125-.699219-4.640625-.699219-7.058593 0-18.140626 13.300781-33.082032 30.660157-35.761719-7.878907-41.320313 35.160156-74.660157 73.160156-56.160157.019531 0 .019531 0 .019531-.019531 15.519531-31.78125 54.140625-42.980469 86.179687-38.78125 3.78125.5 7.921876 1.0625 12.199219 1.78125 16 18.902344 21.222657 46 10.78125 70.5l.019531.019531c15.621094 0 29.859376 9.859376 34.441407 24.78125 7.617187 24.859376-10.761719 47.621094-34.441407 47.621094zm0 0" fill="#40c4df"/><path d="m266.023438 169.058594c0 6.339844-4.019532 11.761718-9.679688 13.78125-1.5625.597656-3.242188.898437-5 .898437-8.121094 0-14.683594-6.578125-14.683594-14.679687 0-8.121094 6.5625-14.679688 14.683594-14.679688 1.757812 0 3.4375.300782 5 .898438 5.660156 2.023437 9.679688 7.421875 9.679688 13.78125zm0 0" fill="#d73735"/><path d="m266.023438 169.058594c0-7.609375-4.335938-13.78125-9.679688-13.78125-5.347656 0-9.683594 6.171875-9.683594 13.78125s4.335938 13.78125 9.683594 13.78125c5.34375 0 9.679688-6.171875 9.679688-13.78125zm0 0" fill="#f85252"/><g fill="#491352"><path d="m71.113281 223.550781h38.984375c2.207032 0 4-1.792969 4-4s-1.792968-4-4-4h-38.984375c-2.210937 0-4 1.792969-4 4s1.789063 4 4 4zm0 0"/><path d="m104.382812 460.800781h-27.5625c-6.777343 0-12.277343 5.5-12.277343 12.277344v.339844c0 6.78125 5.5 12.28125 12.277343 12.28125h27.5625c6.777344 0 12.277344-5.5 12.277344-12.28125v-.339844c0-6.777344-5.5-12.277344-12.277344-12.277344zm4.277344 12.617188c0 2.359375-1.917968 4.28125-4.277344 4.28125h-27.5625c-2.359374 0-4.277343-1.921875-4.277343-4.28125v-.339844c0-2.359375 1.917969-4.277344 4.277343-4.277344h27.5625c2.359376 0 4.277344 1.917969 4.277344 4.277344zm0 0"/><path d="m181.203125 448.046875v-232.828125c0-7.71875-6.28125-14-14-14h-153.199219c-7.722656 0-13.99999975 6.28125-13.99999975 14v21.417969c0 .003906-.00390625.011719-.00390625.019531s.00390625.011719.00390625.019531v211.402344c0 .003906-.00390625.011719-.00390625.019531 0 .007813.00390625.011719.00390625.019532v39.863281c0 7.722656 6.27734375 14 13.99999975 14h153.199219c7.71875 0 14-6.277344 14-14v-39.828125c0-.019532.003906-.035156.003906-.054688 0-.015625-.003906-.035156-.003906-.050781zm-173.199219-207.390625h165.199219v203.441406h-165.199219zm6-31.4375h153.199219c3.320313 0 6 2.699219 6 6v17.4375h-165.199219v-17.4375c0-3.300781 2.679688-6 6-6zm153.199219 284.761719h-153.199219c-3.320312 0-6-2.703125-6-6v-35.882813h165.199219v35.882813c0 3.296875-2.679687 6-6 6zm0 0"/><path d="m392.589844 223.550781h38.980468c2.210938 0 4-1.792969 4-4s-1.789062-4-4-4h-38.980468c-2.210938 0-4 1.792969-4 4s1.789062 4 4 4zm0 0"/><path d="m425.863281 460.800781h-27.5625c-6.777343 0-12.277343 5.5-12.277343 12.277344v.339844c0 6.78125 5.5 12.28125 12.277343 12.28125h27.5625c6.777344 0 12.277344-5.5 12.277344-12.28125v-.339844c0-6.777344-5.5-12.277344-12.277344-12.277344zm4.277344 12.617188c0 2.359375-1.917969 4.28125-4.277344 4.28125h-27.5625c-2.359375 0-4.277343-1.921875-4.277343-4.28125v-.339844c0-2.359375 1.917968-4.277344 4.277343-4.277344h27.5625c2.359375 0 4.277344 1.917969 4.277344 4.277344zm0 0"/><path d="m502.683594 448.097656c0-.007812 0-.011718 0-.019531v-232.859375c0-7.71875-6.28125-14-14-14h-153.203125c-7.71875 0-14 6.28125-14 14v21.382812c0 .019532-.003907.035157-.003907.054688 0 .015625.003907.035156.003907.054688v211.335937c0 .015625-.003907.03125-.003907.050781 0 .019532.003907.035156.003907.050782v39.832031c0 7.71875 6.28125 14 14 14h153.203125c7.71875 0 14-6.28125 14-14v-39.863281c0-.007813 0-.015626 0-.019532zm-173.203125-207.441406h165.203125v203.441406h-165.203125zm6-31.4375h153.203125c3.320312 0 6 2.699219 6 6v17.4375h-165.203125v-17.4375c0-3.300781 2.679687-6 6-6zm153.203125 284.761719h-153.203125c-3.320313 0-6-2.703125-6-6v-35.882813h165.203125v35.882813c0 3.296875-2.679688 6-6 6zm0 0"/><path d="m156.5625 175.21875h77.160156c2.097656 6.058594 7.257813 10.699219 13.621094 12.082031v91.191407c0 2.210937 1.789062 4 4 4 2.207031 0 4-1.789063 4-4v-91.191407c6.359375-1.382812 11.519531-6.023437 13.617188-12.082031h78.140624c12.679688 0 24.78125-6.097656 32.339844-16.320312 7.679688-10.398438 9.839844-23.699219 5.921875-36.480469-4.441406-14.480469-17.421875-25.078125-32.640625-27.21875 3.21875-9.539063 4.398438-19.78125 3.4375-29.941407-3.21875-34-31.339844-61.796874-65.398437-64.660156-28.898438-2.398437-55.738281 12.140625-69.378907 37.339844-7.121093-2.839844-14.839843-4.199219-22.5625-3.9375-27.117187.917969-50.039062 22-53.277343 49.039062-.539063 4.339844-.519531 8.71875 0 13.101563-18.140625 4.636719-30.859375 21.378906-30.121094 40.457031.820313 21.300782 19.28125 38.621094 41.140625 38.621094zm94.78125 4.519531c-5.945312 0-10.683594-4.824219-10.683594-10.679687 0-5.820313 4.722656-10.679688 10.683594-10.679688 5.957031 0 10.679688 4.863282 10.679688 10.679688 0 5.851562-4.730469 10.679687-10.679688 10.679687zm-100.683594-76.5c.222656-.039062.441406-.078125.660156-.160156 1.921876-.640625 3.042969-2.617187 2.683594-4.578125-.921875-4.820312-1.101562-9.699219-.523437-14.5 2.78125-23.160156 22.402343-41.222656 45.621093-42 7.820313-.28125 15.378907 1.320312 22.378907 4.71875.160156.058594.320312.140625.480469.179688 1.960937.660156 4.0625-.277344 4.902343-2.097657 11.558594-24.261719 36.417969-38.480469 63.238281-36.222656 30.261719 2.542969 55.242188 27.222656 58.082032 57.441406 1.039062 10.839844-.582032 21.339844-4.800782 31.300781-.5 1.21875-.339843 2.640626.398438 3.738282.742188 1.101562 2 1.761718 3.320312 1.761718 14.058594 0 26.660157 9.019532 30.621094 21.957032 3.160156 10.320312 1.4375 21.023437-4.71875 29.363281-6.0625 8.199219-15.742187 13.078125-25.902344 13.078125h-77.179687c-.917969-9.441406-8.898437-16.839844-18.578125-16.839844-9.683594 0-17.660156 7.398438-18.582031 16.839844h-76.199219c-17.621094 0-32.480469-13.878906-33.140625-30.917969-.640625-16.363281 11.082031-30.582031 27.238281-33.0625zm0 0"/><path d="m251.34375 117.199219c-9.289062 0-18.003906 3.617187-24.542969 10.179687-1.558593 1.5625-1.554687 4.097656.011719 5.65625 1.558594 1.554688 4.09375 1.550782 5.65625-.015625 5.023438-5.042969 11.726562-7.820312 18.875-7.820312 7.144531 0 13.847656 2.777343 18.871094 7.820312.78125.789063 1.808594 1.179688 2.835937 1.179688 1.019531 0 2.042969-.386719 2.820313-1.164063 1.566406-1.558594 1.570312-4.09375.011718-5.65625-6.535156-6.566406-15.253906-10.179687-24.539062-10.179687zm0 0"/><path d="m251.34375 88.609375c-16.886719 0-32.78125 6.582031-44.757812 18.535156-1.5625 1.558594-1.566407 4.09375-.007813 5.65625 1.558594 1.558594 4.09375 1.570313 5.65625.007813 10.46875-10.449219 24.359375-16.199219 39.109375-16.199219s28.636719 5.75 39.105469 16.199219c.78125.777344 1.804687 1.167968 2.824219 1.167968 1.027343 0 2.050781-.394531 2.832031-1.175781 1.558593-1.5625 1.554687-4.097656-.003907-5.65625-11.980468-11.953125-27.875-18.535156-44.757812-18.535156zm0 0"/><path d="m193.519531 94.082031c15.441407-15.441406 35.972657-23.945312 57.824219-23.945312 21.847656 0 42.378906 8.503906 57.820312 23.945312.78125.78125 1.804688 1.171875 2.828126 1.171875 1.023437 0 2.046874-.390625 2.828124-1.171875 1.5625-1.5625 1.5625-4.09375 0-5.65625-16.949218-16.953125-39.492187-26.289062-63.476562-26.289062-23.988281 0-46.53125 9.335937-63.480469 26.289062-1.5625 1.5625-1.5625 4.09375 0 5.65625s4.09375 1.5625 5.65625 0zm0 0"/><path d="m297.09375 317.027344c-.042969-.132813-.070312-.269532-.125-.398438-.058594-.136718-.132812-.261718-.207031-.390625-.054688-.101562-.097657-.203125-.160157-.296875-.148437-.21875-.316406-.425781-.503906-.613281l-24.296875-24.296875c-1.5625-1.5625-4.09375-1.5625-5.65625 0-1.558593 1.5625-1.558593 4.09375 0 5.65625l17.472657 17.46875h-74.210938c-2.207031 0-4 1.792969-4 4 0 2.210938 1.792969 4 4 4h74.207031l-16.820312 16.820312c-1.5625 1.5625-1.5625 4.09375 0 5.65625.78125.78125 1.804687 1.171876 2.828125 1.171876 1.023437 0 2.042968-.390626 2.828125-1.171876l23.648437-23.644531c.1875-.1875.351563-.394531.5-.613281.0625-.097656.105469-.199219.164063-.296875.070312-.128906.148437-.253906.203125-.394531.054687-.128906.085937-.265625.125-.398438.035156-.117187.078125-.226562.101562-.347656.105469-.515625.105469-1.046875 0-1.5625-.019531-.117188-.066406-.230469-.097656-.347656zm0 0"/><path d="m293.273438 385.824219h-74.207032l17.46875-17.46875c1.5625-1.5625 1.5625-4.09375 0-5.65625s-4.09375-1.5625-5.65625 0l-24.292968 24.296875c-.191407.183594-.355469.394531-.503907.613281-.0625.097656-.105469.199219-.160156.296875-.074219.128906-.152344.253906-.207031.390625-.054688.128906-.085938.265625-.125.402344-.035156.113281-.078125.222656-.101563.34375-.105469.519531-.105469 1.046875 0 1.566406.023438.121094.066407.230469.101563.347656.039062.132813.070312.269531.125.398438.054687.136719.132812.261719.207031.390625.050781.097656.097656.203125.160156.296875.148438.21875.3125.425781.503907.613281l23.644531 23.648438c.785156.78125 1.804687 1.171874 2.828125 1.171874 1.027344 0 2.046875-.390624 2.828125-1.171874 1.5625-1.5625 1.5625-4.09375 0-5.65625l-16.820313-16.820313h74.207032c2.207031 0 4-1.792969 4-4s-1.792969-4.003906-4-4.003906zm0 0"/></g></svg>