<svg height="452pt" viewBox="0 -12 452.8121 452" width="452pt" xmlns="http://www.w3.org/2000/svg"><path d="m64.820312 22.761719c-1.945312 23.128906-26.046874 26.78125-26.046874 26.78125 20.691406.972656 25.851562 28.117187 25.851562 28.117187.441406-19.351562 26.640625-28.402344 26.640625-28.402344-19.628906-1.175781-26.445313-26.496093-26.445313-26.496093zm0 0" fill="#d7e057"/><path d="m91.445312 46.261719c-17.210937-1.03125-23.664062-24.046875-23.726562-24.28125-.382812-1.40625-1.730469-2.328125-3.167969-2.203125-1.449219.128906-2.59375 1.28125-2.714843 2.730468-1.722657 20.433594-22.628907 23.933594-23.511719 24.066407-1.527344.234375-2.625 1.582031-2.546875 3.125.082031 1.539062 1.316406 2.769531 2.855468 2.839843 18.054688.851563 22.996094 25.4375 23.046876 25.6875.273437 1.421876 1.515624 2.433594 2.941406 2.433594.085937 0 .171875-.003906.253906-.011718 1.527344-.125 2.714844-1.386719 2.75-2.917969.390625-17.019531 24.386719-25.554688 24.628906-25.640625 1.347656-.464844 2.183594-1.828125 1.984375-3.242188-.199219-1.421875-1.367187-2.503906-2.792969-2.585937zm-27.132812 20.691406c-2.710938-6.261719-7.417969-13.8125-15.171875-17.75 5.863281-2.8125 12.816406-7.828125 16.402344-16.546875 3.101562 6.140625 8.398437 13.757812 16.667969 17.445312-6.015626 3.277344-13.847657 8.808594-17.898438 16.851563zm0 0" fill="#3a312a"/><path d="m21.425781 56.726562c-1.378906 16.355469-18.425781 18.9375-18.425781 18.9375 14.636719.6875 18.285156 19.890626 18.285156 19.890626.3125-13.691407 18.84375-20.09375 18.84375-20.09375-13.882812-.828126-18.703125-18.734376-18.703125-18.734376zm0 0" fill="#d7e057"/><path d="m40.304688 72.46875c-11.53125-.6875-15.941407-16.371094-15.988282-16.527344-.378906-1.40625-1.707031-2.339844-3.164062-2.207031-1.449219.132813-2.597656 1.289063-2.71875 2.738281-1.15625 13.738282-15.292969 16.128906-15.882813 16.226563-1.527343.230469-2.6249998 1.582031-2.54687475 3.121093.08203125 1.542969 1.31249975 2.769532 2.85546875 2.839844 12.070313.570313 15.445313 17.292969 15.480469 17.457032.269531 1.425781 1.515625 2.4375 2.941406 2.4375.085938 0 .167969-.003907.25-.007813 1.53125-.128906 2.71875-1.386719 2.753906-2.921875.257813-11.417969 16.664063-17.269531 16.824219-17.324219 1.351563-.46875 2.1875-1.828125 1.992187-3.246093-.195312-1.417969-1.367187-2.5-2.796874-2.585938zm-19.167969 13.589844c-1.847657-3.769532-4.679688-7.894532-8.894531-10.558594 3.710937-2.082031 7.394531-5.257812 9.742187-9.832031 2.113281 3.746093 5.308594 7.910156 9.882813 10.449219-3.699219 2.199218-7.976563 5.476562-10.730469 9.941406zm0 0" fill="#3a312a"/><path d="m21.425781 3.410156c-1.378906 16.355469-18.425781 18.9375-18.425781 18.9375 14.636719.691406 18.285156 19.890625 18.285156 19.890625.3125-13.691406 18.84375-20.089843 18.84375-20.089843-13.882812-.832032-18.703125-18.738282-18.703125-18.738282zm0 0" fill="#d7e057"/><path d="m40.304688 19.152344c-11.53125-.6875-15.941407-16.371094-15.988282-16.527344-.378906-1.40625-1.707031-2.34375-3.164062-2.207031-1.449219.132812-2.597656 1.289062-2.71875 2.738281-1.15625 13.738281-15.292969 16.128906-15.882813 16.222656-1.527343.234375-2.6249998 1.582032-2.54687475 3.121094.08203125 1.542969 1.31249975 2.773438 2.85546875 2.84375 12.070313.566406 15.445313 17.289062 15.480469 17.453125.269531 1.425781 1.515625 2.441406 2.941406 2.441406.085938 0 .167969-.003906.25-.011719 1.53125-.125 2.71875-1.386718 2.753906-2.921874.257813-11.414063 16.664063-17.265626 16.824219-17.320313 1.351563-.46875 2.1875-1.828125 1.992187-3.246094-.195312-1.417969-1.367187-2.5-2.796874-2.585937zm-19.167969 13.589844c-1.847657-3.769532-4.679688-7.894532-8.894531-10.558594 3.714843-2.082032 7.394531-5.261719 9.742187-9.832032 2.117187 3.746094 5.308594 7.90625 9.882813 10.449219-3.699219 2.199219-7.976563 5.480469-10.730469 9.941407zm0 0" fill="#3a312a"/><path d="m426.144531 120.980469h-399.332031c-13.070312 0-23.667969 10.597656-23.667969 23.667969v256.667968c0 13.070313 10.597657 23.664063 23.667969 23.664063h399.332031c13.070313 0 23.667969-10.59375 23.667969-23.664063v-256.667968c0-13.070313-10.597656-23.667969-23.667969-23.667969zm0 0" fill="#f16c7a"/><path d="m426.144531 117.980469h-399.332031c-14.703125 0-26.664062 11.964843-26.664062 26.667969v142.578124c0 1.65625 1.339843 3 3 3 1.65625 0 3-1.34375 3-3v-142.578124c0-11.394532 9.273437-20.667969 20.667968-20.667969h399.328125c11.398438 0 20.667969 9.273437 20.667969 20.667969v256.667968c0 11.394532-9.273438 20.664063-20.667969 20.664063h-399.332031c-11.394531 0-20.667969-9.269531-20.667969-20.664063v-84.152344c0-1.65625-1.339843-3-3-3-1.65625 0-3 1.34375-3 3v84.152344c0 14.703125 11.964844 26.664063 26.667969 26.664063h399.332031c14.707031 0 26.667969-11.960938 26.667969-26.664063v-256.667968c0-14.703126-11.960938-26.667969-26.667969-26.667969zm0 0" fill="#3a312a"/><path d="m148.027344 333.574219h-21.480469v-13.957031c-5.941406 4.117187-12.089844 6.546874-18.058594 6.546874-5.71875 0-11.761719-2.453124-17.675781-6.621093h-.367188v14.035156h-21.492187c-17.960937 0-32.515625 14.554687-32.515625 32.511719v29.464844h144.105469v-29.464844c0-17.957032-14.558594-32.515625-32.515625-32.515625zm0 0" fill="#fce8cb"/><path d="m148.027344 330.574219h-18.480469v-10.960938c0-1.117187-.621094-2.140625-1.609375-2.65625-.988281-.519531-2.179688-.449219-3.097656.191407-5.761719 3.992187-11.257813 6.015624-16.347656 6.015624-4.859376 0-10.226563-2.042968-15.953126-6.074218-.503906-.355469-1.109374-.546875-1.726562-.546875h-.367188c-1.65625 0-3 1.34375-3 3v11.035156h-18.492187c-19.582031 0-35.515625 15.933594-35.515625 35.515625v29.464844c0 1.65625 1.34375 3 3 3h49.375c1.660156 0 3-1.34375 3-3s-1.339844-3-3-3h-46.375v-26.464844c0-16.273438 13.242188-29.515625 29.515625-29.515625h21.492187c1.660157 0 3-1.34375 3-3v-8.816406c5.207032 2.929687 10.25 4.40625 15.042969 4.40625 4.863281 0 9.90625-1.40625 15.058594-4.183594v8.59375c0 1.65625 1.339844 3 3 3h21.480469c16.273437 0 29.511718 13.242187 29.511718 29.515625v26.464844h-75.484374c-1.65625 0-3 1.34375-3 3s1.34375 3 3 3h78.488281c1.65625 0 3-1.34375 3-3v-29.464844c0-19.585938-15.933594-35.519531-35.515625-35.519531zm0 0" fill="#3a312a"/><path d="m148.027344 333.566406h-5.140625l.136719.09375-22.34375 29.636719-11.535157-8.6875-11.527343 8.6875-22.34375-29.636719.132812-.09375h-6.453125c-17.957031 0-32.511719 14.554688-32.511719 32.511719v29.480469h144.101563v-29.480469c0-17.957031-14.558594-32.511719-32.515625-32.511719zm0 0" fill="#8ac6dd"/><path d="m148.027344 330.566406h-5.140625c-1.203125 0-2.226563.761719-2.6875 1.855469l-20.113281 26.675781-9.132813-6.882812c-1.070313-.804688-2.542969-.804688-3.613281 0l-9.136719 6.882812-19.945313-26.457031c-.402343-1.234375-1.554687-2.074219-2.855468-2.074219h-6.453125c-19.582031 0-35.511719 15.933594-35.511719 35.515625v29.476563c0 1.65625 1.339844 3 3 3h144.101562c1.660157 0 3-1.34375 3-3v-29.476563c.003907-19.585937-15.929687-35.515625-35.511718-35.515625zm29.515625 61.992188h-138.105469v-26.476563c0-16.273437 13.242188-29.515625 29.515625-29.515625h4.75l21.515625 28.542969c1 1.320313 2.882812 1.582031 4.203125.589844l9.726563-7.332031 9.722656 7.332031c1.324218.992187 3.203125.730469 4.203125-.589844l21.515625-28.542969h3.4375c16.273437 0 29.515625 13.242188 29.515625 29.515625zm0 0" fill="#3a312a"/><path d="m52.65625 240.179688c-7.0625 0-12.792969 5.726562-12.792969 12.792968s5.730469 12.792969 12.792969 12.792969c7.066406 0 12.796875-5.726563 12.796875-12.792969s-5.730469-12.792968-12.796875-12.792968zm0 0" fill="#fce8cb" fill-rule="evenodd"/><path d="m52.65625 237.179688c-8.707031 0-15.789062 7.085937-15.789062 15.792968 0 8.707032 7.082031 15.792969 15.789062 15.792969 8.710938 0 15.796875-7.085937 15.796875-15.792969 0-8.707031-7.085937-15.792968-15.796875-15.792968zm0 25.585937c-5.398438 0-9.789062-4.390625-9.789062-9.789063 0-5.402343 4.394531-9.796874 9.789062-9.796874 5.402344 0 9.796875 4.394531 9.796875 9.796874 0 5.398438-4.394531 9.789063-9.796875 9.789063zm0 0" fill="#3a312a"/><path d="m177.117188 252.972656c0 7.066406-5.726563 12.792969-12.792969 12.792969-7.066407 0-12.792969-5.726563-12.792969-12.792969s5.726562-12.792968 12.792969-12.792968c7.066406 0 12.792969 5.726562 12.792969 12.792968zm0 0" fill="#fce8cb" fill-rule="evenodd"/><path d="m164.324219 237.179688c-8.707031 0-15.792969 7.085937-15.792969 15.792968 0 8.707032 7.082031 15.792969 15.792969 15.792969 8.710937 0 15.792969-7.085937 15.792969-15.792969 0-8.707031-7.082032-15.792968-15.792969-15.792968zm0 25.585937c-5.398438 0-9.792969-4.390625-9.792969-9.789063 0-5.402343 4.394531-9.796874 9.792969-9.796874 5.398437 0 9.792969 4.394531 9.792969 9.796874 0 5.398438-4.390626 9.789063-9.792969 9.789063zm0 0" fill="#3a312a"/><path d="m108.492188 190.046875c-31.324219 0-56.714844 25.394531-56.714844 56.714844 0 31.324219 31.371094 79.402343 56.714844 79.402343 26.546874 0 56.714843-48.078124 56.714843-79.402343 0-31.320313-25.394531-56.714844-56.714843-56.714844zm0 0" fill="#fce8cb"/><path d="m108.492188 187.046875c-32.929688 0-59.714844 26.789063-59.714844 59.714844 0 32.539062 32.027344 82.402343 59.714844 82.402343 28.261718 0 59.714843-49.117187 59.714843-82.402343 0-32.925781-26.785156-59.714844-59.714843-59.714844zm0 136.117187c-23.707032 0-53.714844-47.371093-53.714844-76.402343 0-29.617188 24.09375-53.714844 53.714844-53.714844 29.617187 0 53.714843 24.097656 53.714843 53.714844 0 29.476562-29.328125 76.402343-53.714843 76.402343zm0 0" fill="#3a312a"/><path d="m88.46875 240.585938c-3.058594 0-5.535156 2.480468-5.535156 5.539062 0 3.054688 2.476562 5.535156 5.535156 5.535156s5.535156-2.480468 5.535156-5.535156c0-3.058594-2.476562-5.539062-5.535156-5.539062zm0 0" fill="#3a312a"/><path d="m128.515625 240.585938c-3.058594 0-5.535156 2.480468-5.535156 5.539062 0 3.054688 2.476562 5.535156 5.535156 5.535156s5.535156-2.480468 5.535156-5.535156c0-3.058594-2.480469-5.539062-5.535156-5.539062zm0 0" fill="#3a312a"/><path d="m86.941406 262.582031c0-3.9375-4.269531-7.128906-9.539062-7.128906-5.265625 0-9.535156 3.191406-9.535156 7.128906s4.269531 7.128907 9.535156 7.128907c5.269531 0 9.539062-3.191407 9.539062-7.128907zm0 0" fill="#f5978a"/><path d="m139.582031 255.453125c-5.269531 0-9.539062 3.191406-9.539062 7.125 0 3.9375 4.269531 7.128906 9.539062 7.128906 5.265625 0 9.535157-3.191406 9.535157-7.128906-.003907-3.933594-4.269532-7.125-9.535157-7.125zm0 0" fill="#f5978a"/><path d="m167.847656 233.652344c0-30.996094-26.28125-56.121094-58.703125-56.121094s-58.703125 25.125-58.703125 56.121094c0 3.28125.59375 5.726562 1.695313 8.777344.519531 1.441406 8.925781-3.15625 9.644531-3.660157 3.578125-2.519531 6.503906-5.9375 8.6875-9.710937.90625-1.570313 1.660156-3.167969 2.265625-4.765625 1.933594-5.097657 7.191406-19.285157 12.53125-18.171875 7.15625 1.492187 15.269531 2.335937 23.878906 2.335937s16.71875-.84375 23.878907-2.335937c5.339843-1.113282 10.597656 13.074218 12.53125 18.171875.605468 1.597656 1.359374 3.195312 2.261718 4.765625 3.613282 6.246094 9.714844 12.191406 17.132813 13.273437.019531-.355469.472656-.480469.808593-.601562 2.433594-.882813 2.089844-6.128907 2.089844-8.078125zm0 0" fill="#87796f"/><path d="m170.855469 234.265625-.003907-.613281c0-32.601563-27.679687-59.125-61.707031-59.125-34.023437 0-61.699219 26.523437-61.699219 59.125 0 3.824218.746094 6.679687 1.871094 9.796875.363282.996093 1.160156 1.753906 2.191406 2.082031.316407.097656.679688.140625 1.070313.140625 3.863281 0 10.859375-4.398437 10.929687-4.449219 3.742188-2.632812 7.042969-6.320312 9.5625-10.667968.96875-1.683594 1.800782-3.433594 2.46875-5.199219l.121094-.316407c5.71875-15.09375 8.507813-15.960937 8.992188-15.980468 7.632812 1.589844 15.875 2.394531 24.492187 2.394531 8.621094 0 16.863281-.804687 24.480469-2.394531.5.019531 3.285156.886718 9.007812 15.980468l.121094.316407c.671875 1.773437 1.5 3.519531 2.46875 5.203125 4.71875 8.15625 11.929688 13.667968 19.296875 14.742187.835938.125 1.683594-.113281 2.335938-.648437.085937-.074219.171875-.148438.25-.230469 3.875-1.691406 3.792969-7.175781 3.75-10.15625zm-6.414063 4.757813c-.089844.035156-.179687.070312-.265625.113281-5.15625-1.230469-10.226562-5.472657-13.753906-11.574219-.808594-1.402344-1.5-2.859375-2.0625-4.332031l-.117187-.3125c-4.199219-11.085938-9.03125-21.148438-15.828126-19.730469-7.230468 1.507812-15.058593 2.273438-23.269531 2.273438-8.207031 0-16.035156-.765626-23.265625-2.273438-6.796875-1.417969-11.628906 8.644531-15.828125 19.730469l-.121093.3125c-.558594 1.46875-1.25 2.925781-2.054688 4.328125-2.085938 3.59375-4.789062 6.625-7.785156 8.734375-.789063.511719-3.828125 2.097656-5.859375 2.921875-.507813-1.757813-.789063-3.441406-.789063-5.558594 0-29.292969 24.988282-53.125 55.703125-53.125 30.714844 0 55.703125 23.832031 55.703125 53.125l.007813.703125c.035156 2.460937-.101563 4.027344-.414063 4.664063zm2.117188 5.609374-1.09375-2.792968 1.308594 2.6875c-.074219.042968-.148438.082031-.214844.105468zm0 0" fill="#3a312a"/><path d="m75.289062 333.652344 11.582032-8.726563 22.339844 29.640625-11.582032 8.726563zm0 0" fill="#87796f"/><path d="m111.589844 352.765625-22.335938-29.636719c-.480468-.636718-1.191406-1.054687-1.980468-1.167968-.785157-.113282-1.585938.097656-2.222657.574218l-11.578125 8.726563c-1.324218.996093-1.585937 2.878906-.589844 4.203125l22.335938 29.636718c.589844.785157 1.488281 1.195313 2.398438 1.195313.628906 0 1.261718-.199219 1.804687-.601563l11.582031-8.726562c.632813-.476562 1.050782-1.191406 1.164063-1.976562.109375-.789063-.101563-1.589844-.578125-2.226563zm-13.386719 6.328125-18.726563-24.847656 6.789063-5.113282 18.726563 24.847657zm0 0" fill="#3a312a"/><path d="m109.101562 354.589844 22.339844-29.640625 11.578125 8.726562-22.339843 29.640625zm0 0" fill="#87796f"/><path d="m145.984375 333.238281c-.109375-.785156-.527344-1.496093-1.164063-1.976562l-11.578124-8.726563c-.636719-.476562-1.4375-.6875-2.222657-.574218-.789062.113281-1.5.53125-1.976562 1.167968l-22.339844 29.636719c-.480469.636719-.683594 1.4375-.574219 2.222656.109375.789063.527344 1.5 1.164063 1.980469l11.578125 8.722656c.539062.40625 1.175781.605469 1.804687.605469.910157 0 1.808594-.414063 2.398438-1.199219l22.335937-29.636718c.480469-.632813.6875-1.429688.574219-2.222657zm-25.894531 25.855469-6.789063-5.113281 18.726563-24.847657 6.789062 5.113282zm0 0" fill="#3a312a"/><path d="m63.429688 369.269531c-1.65625 0-3 1.34375-3 3v23.289063c0 1.65625 1.34375 3 3 3 1.660156 0 3-1.34375 3-3v-23.289063c0-1.65625-1.339844-3-3-3zm0 0" fill="#3a312a"/><path d="m154.863281 369.269531c-1.660156 0-3 1.34375-3 3v23.289063c0 1.65625 1.339844 3 3 3 1.65625 0 3-1.34375 3-3v-23.289063c0-1.65625-1.34375-3-3-3zm0 0" fill="#3a312a"/><path d="m108.085938 157.160156c-39.980469 23.519532-63.1875-21.691406-63.1875-1.074218 0 6.515624 2.628906 13.015624 6.074218 18.929687l9.542969 13.527344c9.625 12.121093 21.140625 25.046875 35.050781 29.003906 22.402344 6.367187 62.054688-1.578125 62.054688-33.824219 0-20.617187-17.28125-45.539062-49.535156-26.5625zm0 0" fill="#87796f"/><g fill="#3a312a"><path d="m143.550781 151.0625c-7.175781-4.101562-19.414062-6.824219-36.988281 3.511719-22.5625 13.277343-39.449219 3.148437-49.539062-2.90625-5.136719-3.078125-8.847657-5.300781-12.050782-3.484375-2.722656 1.542968-3.074218 5.035156-3.074218 7.902344 0 6.277343 2.121093 12.960937 6.480468 20.445312.046875.074219.089844.144531.140625.214844l9.542969 13.53125c.03125.042968.066406.089844.101562.132812 10.453126 13.164063 22.121094 25.910156 36.582032 30.019532 4.835937 1.378906 10.511718 2.128906 16.480468 2.128906 12.183594 0 25.566407-3.140625 35.394532-10.5625 9.160156-6.917969 14-16.691406 14-28.269532 0-11.402343-5.277344-25.917968-17.070313-32.664062zm-.542969 56.148438c-12.941406 9.769531-33.675781 11.125-46.621093 7.449218-12.800781-3.636718-23.652344-15.558594-33.46875-27.914062l-9.414063-13.347656c-3.769531-6.492188-5.601562-12.15625-5.601562-17.3125 0-1.238282.097656-1.992188.1875-2.429688 1.292968.425781 3.785156 1.921875 5.847656 3.160156 10.496094 6.296875 30.03125 18.011719 55.671875 2.929688 11.945313-7.03125 22.65625-8.230469 30.964844-3.472656 9.707031 5.546874 14.050781 17.789062 14.050781 27.453124-.003906 9.761719-3.910156 17.660157-11.617188 23.484376zm0 0"/><path d="m125.210938 280.207031c-1.550782-.585937-3.28125.203125-3.859376 1.753907-1.175781 3.136718-5.570312 7.804687-12.863281 7.804687-6.230469 0-10.351562-2.554687-12.964843-8.039063-.710938-1.496093-2.5-2.128906-3.996094-1.421874-1.496094.710937-2.132813 2.503906-1.421875 4 3.621093 7.605468 9.804687 11.460937 18.378906 11.460937 9.6875 0 16.371094-6.0625 18.480469-11.699219.585937-1.554687-.199219-3.28125-1.753906-3.859375zm0 0"/><path d="m226.480469 144.230469c-1.660157 0-3 1.34375-3 3v251.5c0 1.65625 1.339843 3 3 3 1.65625 0 3-1.34375 3-3v-251.5c0-1.65625-1.34375-3-3-3zm0 0"/><path d="m417.144531 168.871094h-157.332031c-1.65625 0-3 1.34375-3 3s1.34375 3 3 3h157.332031c1.660157 0 3-1.34375 3-3s-1.339843-3-3-3zm0 0"/><path d="m417.144531 209.316406h-21.269531c-1.65625 0-3 1.34375-3 3s1.34375 3 3 3h21.269531c1.660157 0 3-1.34375 3-3s-1.339843-3-3-3zm0 0"/><path d="m364.574219 209.316406c-33.980469-.117187-70.210938-.117187-104.773438 0-1.65625.003906-2.992187 1.351563-2.988281 3.007813s1.347656 2.992187 3 2.992187h.007812c34.546876-.117187 70.765626-.117187 104.730469 0h.011719c1.652344 0 2.992188-1.335937 3-2.992187s-1.332031-3.003907-2.988281-3.007813zm0 0"/><path d="m417.144531 249.757812h-157.332031c-1.65625 0-3 1.34375-3 3s1.34375 3 3 3h157.332031c1.660157 0 3-1.34375 3-3s-1.339843-3-3-3zm0 0"/><path d="m417.144531 290.203125h-90.496093c-1.65625 0-3 1.34375-3 3s1.34375 3 3 3h90.496093c1.660157 0 3-1.34375 3-3s-1.339843-3-3-3zm0 0"/><path d="m293.5625 290.203125h-33.75c-1.65625 0-3 1.34375-3 3s1.34375 3 3 3h33.75c1.65625 0 3-1.34375 3-3s-1.34375-3-3-3zm0 0"/><path d="m417.144531 330.648438h-157.332031c-1.65625 0-3 1.34375-3 3s1.34375 3 3 3h157.332031c1.660157 0 3-1.34375 3-3s-1.339843-3-3-3zm0 0"/><path d="m417.144531 371.089844h-157.332031c-1.65625 0-3 1.34375-3 3s1.34375 3 3 3h157.332031c1.660157 0 3-1.34375 3-3s-1.339843-3-3-3zm0 0"/></g><path d="m426.140625 123.976562h-26.660156c11.398437 0 20.660156 9.277344 20.660156 20.679688v256.660156c0 11.398438-9.261719 20.660156-20.660156 20.660156h26.660156c11.398437 0 20.679687-9.261718 20.679687-20.660156v-256.660156c0-11.402344-9.28125-20.679688-20.679687-20.679688zm0 0" fill="#ce4e61"/></svg>