<svg height="453pt" viewBox="-1 0 453 453.23912" width="453pt" xmlns="http://www.w3.org/2000/svg"><path d="m109.105469 86.90625h-35.960938c-1.65625 0-3 1.34375-3 3s1.34375 3 3 3h35.960938c1.65625 0 3-1.34375 3-3s-1.34375-3-3-3zm0 0" fill="#3a312a"/><path d="m107.207031 131.40625h-72.0625c-1.65625 0-3 1.34375-3 3s1.34375 3 3 3h72.0625c1.65625 0 3-1.34375 3-3s-1.34375-3-3-3zm0 0" fill="#3a312a"/><path d="m107.207031 175.90625h-104.0625c-1.65625 0-3 1.34375-3 3s1.34375 3 3 3h104.0625c1.65625 0 3-1.34375 3-3s-1.34375-3-3-3zm0 0" fill="#3a312a"/><path d="m107.207031 220.40625h-72.0625c-1.65625 0-3 1.34375-3 3s1.34375 3 3 3h72.0625c1.65625 0 3-1.34375 3-3s-1.34375-3-3-3zm0 0" fill="#3a312a"/><path d="m109.105469 264.90625h-35.960938c-1.65625 0-3 1.34375-3 3s1.34375 3 3 3h35.960938c1.65625 0 3-1.34375 3-3s-1.34375-3-3-3zm0 0" fill="#3a312a"/><path d="m115.484375 80.625c-5.097656 4.761719-8.277344 11.539062-8.277344 19.039062v158.480469c0 7.5 3.179688 14.28125 8.277344 19.039063l118.179687-98.277344zm0 0" fill="#f16c7a"/><path d="m235.582031 176.597656-118.179687-98.277344c-1.160156-.964843-2.863282-.921874-3.964844.113282-5.867188 5.476562-9.230469 13.214844-9.230469 21.230468v158.480469c0 8.019531 3.363281 15.757813 9.230469 21.234375.574219.539063 1.308594.804688 2.046875.804688.679687 0 1.359375-.226563 1.917969-.691406l118.179687-98.28125c.6875-.570313 1.082031-1.417969 1.082031-2.308594s-.394531-1.734375-1.082031-2.304688zm-119.863281 96.492188c-3.53125-4.144532-5.511719-9.460938-5.511719-14.945313v-158.480469c0-5.480468 1.980469-10.800781 5.511719-14.945312l113.257812 94.183594zm0 0" fill="#3a312a"/><path d="m440.804688 80.625-118.179688 98.28125 118.179688 98.277344c5.101562-4.757813 8.28125-11.539063 8.28125-19.039063v-158.480469c0-7.5-3.179688-14.277343-8.28125-19.039062zm0 0" fill="#f16c7a"/><path d="m442.851562 78.429688c-1.105468-1.03125-2.800781-1.074219-3.964843-.113282l-118.179688 98.28125c-.683593.570313-1.082031 1.414063-1.082031 2.304688s.398438 1.738281 1.082031 2.308594l118.179688 98.28125c.558593.460937 1.238281.691406 1.917969.691406.738281 0 1.472656-.269532 2.046874-.804688 5.871094-5.472656 9.234376-13.214844 9.234376-21.234375v-158.480469c0-8.015624-3.363282-15.757812-9.234376-21.234374zm3.234376 179.714843c0 5.484375-1.984376 10.800781-5.511719 14.949219l-113.257813-94.1875 113.257813-94.1875c3.527343 4.144531 5.511719 9.464844 5.511719 14.945312zm0 0" fill="#3a312a"/><path d="m322.617188 178.90625-25.832032-21.480469c-10.285156-8.550781-26.996094-8.550781-37.28125 0l-25.832031 21.480469-118.1875 98.28125c4.640625 4.375 10.925781 7.050781 17.832031 7.050781h289.648438c6.910156 0 13.195312-2.675781 17.835937-7.050781zm0 0" fill="#f16c7a"/><path d="m442.722656 274.878906-144.019531-119.757812c-11.335937-9.425782-29.777344-9.425782-41.117187 0l-144.019532 119.757812c-.660156.546875-1.054687 1.355469-1.078125 2.210938-.027343.859375.3125 1.6875.9375 2.277344 5.382813 5.074218 12.449219 7.871093 19.894531 7.871093h289.648438c7.445312 0 14.511719-2.792969 19.894531-7.871093.625-.589844.964844-1.417969.9375-2.277344-.023437-.855469-.417969-1.664063-1.078125-2.210938zm-19.753906 6.359375h-289.648438c-4.746093 0-9.296874-1.429687-13.113281-4.074219l141.214844-117.429687c9.222656-7.667969 24.222656-7.664063 33.441406 0l141.21875 117.429687c-3.816406 2.644532-8.363281 4.074219-13.113281 4.074219zm0 0" fill="#3a312a"/><path d="m422.96875 73.570312h-289.648438c-6.910156 0-13.191406 2.679688-17.832031 7.054688l118.1875 98.28125 25.832031 21.476562c10.285157 8.550782 26.996094 8.550782 37.28125 0l25.832032-21.476562 118.1875-98.28125c-4.644532-4.375-10.929688-7.054688-17.839844-7.054688zm0 0" fill="#f16c7a"/><g fill="#3a312a"><path d="m442.863281 78.4375c-5.382812-5.070312-12.449219-7.867188-19.894531-7.867188h-97.386719c-1.65625 0-3 1.34375-3 3s1.34375 3 3 3h97.386719c4.746094 0 9.292969 1.429688 13.113281 4.074219l-141.214843 117.429688c-9.21875 7.664062-24.21875 7.667969-33.445313 0l-141.214844-117.425781c3.820313-2.644532 8.367188-4.074219 13.113281-4.074219h163.390626c1.65625 0 3-1.34375 3-3s-1.34375-3-3-3h-163.390626c-7.445312 0-14.507812 2.792969-19.890624 7.867187-.625.589844-.96875 1.417969-.941407 2.277344.023438.859375.417969 1.664062 1.078125 2.210938l144.019532 119.757812c5.667968 4.714844 13.113281 7.070312 20.558593 7.070312 7.441407 0 14.890625-2.355468 20.554688-7.070312l144.023437-119.757812c.660156-.546876 1.054688-1.355469 1.078125-2.210938.027344-.863281-.316406-1.691406-.9375-2.28125zm0 0"/><path d="m379.085938 252.90625h-35.960938c-1.65625 0-3 1.34375-3 3s1.34375 3 3 3h35.960938c1.65625 0 3-1.34375 3-3s-1.34375-3-3-3zm0 0"/><path d="m417.085938 297.40625h-72.058594c-1.65625 0-3 1.34375-3 3s1.34375 3 3 3h72.058594c1.65625 0 3-1.34375 3-3s-1.34375-3-3-3zm0 0"/><path d="m449.085938 341.90625h-104.058594c-1.65625 0-3 1.34375-3 3s1.34375 3 3 3h104.058594c1.65625 0 3-1.34375 3-3s-1.34375-3-3-3zm0 0"/><path d="m417.085938 386.40625h-72.058594c-1.65625 0-3 1.34375-3 3s1.34375 3 3 3h72.058594c1.65625 0 3-1.34375 3-3s-1.34375-3-3-3zm0 0"/><path d="m379.085938 430.90625h-35.960938c-1.65625 0-3 1.34375-3 3s1.34375 3 3 3h35.960938c1.65625 0 3-1.34375 3-3s-1.34375-3-3-3zm0 0"/></g><path d="m336.746094 246.625-118.179688 98.28125 118.179688 98.277344c5.097656-4.757813 8.28125-11.539063 8.28125-19.039063v-158.480469c0-7.5-3.183594-14.277343-8.28125-19.039062zm0 0" fill="#f16c7a"/><path d="m338.792969 244.429688c-1.101563-1.03125-2.804688-1.074219-3.964844-.113282l-118.179687 98.28125c-.6875.570313-1.082032 1.414063-1.082032 2.304688s.394532 1.738281 1.082032 2.308594l118.179687 98.28125c.558594.460937 1.238281.691406 1.917969.691406.738281 0 1.472656-.269532 2.046875-.804688 5.867187-5.476562 9.234375-13.214844 9.234375-21.234375v-158.480469c0-8.015624-3.367188-15.753906-9.234375-21.234374zm3.234375 179.714843c0 5.484375-1.984375 10.800781-5.515625 14.949219l-113.257813-94.1875 113.257813-94.1875c3.53125 4.144531 5.515625 9.464844 5.515625 14.945312zm0 0" fill="#3a312a"/><path d="m336.746094 246.625-118.179688 98.28125 118.179688 98.277344c5.097656-4.757813 8.28125-11.539063 8.28125-19.039063v-158.480469c0-7.5-3.183594-14.277343-8.28125-19.039062zm0 0" fill="#8ac6dd"/><path d="m338.792969 244.429688c-1.101563-1.03125-2.804688-1.074219-3.964844-.113282l-118.179687 98.28125c-.6875.570313-1.082032 1.414063-1.082032 2.304688s.394532 1.738281 1.082032 2.308594l118.179687 98.28125c.558594.460937 1.238281.691406 1.917969.691406.738281 0 1.472656-.269532 2.046875-.804688 5.867187-5.476562 9.234375-13.214844 9.234375-21.234375v-158.480469c0-8.015624-3.367188-15.753906-9.234375-21.234374zm3.234375 179.714843c0 5.484375-1.984375 10.800781-5.515625 14.949219l-113.257813-94.1875 113.257813-94.1875c3.53125 4.144531 5.515625 9.464844 5.515625 14.945312zm0 0" fill="#3a312a"/><path d="m11.425781 246.625c-5.101562 4.761719-8.28125 11.539062-8.28125 19.039062v158.480469c0 7.5 3.179688 14.28125 8.28125 19.039063l118.179688-98.277344zm0 0" fill="#8ac6dd"/><path d="m131.523438 342.597656-118.179688-98.28125c-1.160156-.964844-2.863281-.917968-3.964844.113282-5.871094 5.480468-9.234375 13.21875-9.234375 21.234374v62.238282c0 1.65625 1.34375 3 3 3s3-1.34375 3-3v-62.238282c0-5.480468 1.984375-10.796874 5.511719-14.945312l113.257812 94.183594-113.253906 94.1875c-3.53125-4.148438-5.515625-9.464844-5.515625-14.945313v-66.238281c0-1.65625-1.34375-3-3-3s-3 1.34375-3 3v66.238281c0 8.015625 3.367188 15.753907 9.234375 21.234375.574219.535156 1.3125.804688 2.046875.804688.679688 0 1.363281-.230469 1.917969-.695313l118.179688-98.28125c.6875-.570312 1.082031-1.414062 1.082031-2.304687s-.394531-1.734375-1.082031-2.304688zm0 0" fill="#3a312a"/><path d="m218.558594 344.90625-25.835938-21.480469c-10.28125-8.550781-26.992187-8.550781-37.277344 0l-25.832031 21.480469-118.191406 98.28125c4.644531 4.375 10.929687 7.050781 17.835937 7.050781h289.648438c6.910156 0 13.195312-2.675781 17.835938-7.050781zm0 0" fill="#8ac6dd"/><path d="m338.660156 440.878906-144.019531-119.757812c-11.335937-9.429688-29.78125-9.425782-41.113281 0l-144.019532 119.757812c-.660156.546875-1.054687 1.355469-1.082031 2.210938-.027343.859375.316407 1.6875.941407 2.277344 5.382812 5.074218 12.449218 7.871093 19.894531 7.871093h289.648437c7.445313 0 14.507813-2.792969 19.890625-7.871093.625-.589844.96875-1.417969.941407-2.277344-.023438-.855469-.421876-1.664063-1.082032-2.210938zm-19.75 6.359375h-289.648437c-4.75 0-9.296875-1.429687-13.117188-4.074219l141.21875-117.429687c9.214844-7.667969 24.214844-7.671875 33.441407 0l141.21875 117.429687c-3.816407 2.644532-8.367188 4.074219-13.113282 4.074219zm0 0" fill="#3a312a"/><path d="m318.910156 239.570312h-289.648437c-6.910157 0-13.195313 2.679688-17.835938 7.054688l118.1875 98.28125 25.835938 21.476562c10.28125 8.550782 26.992187 8.550782 37.277343 0l25.832032-21.476562 118.1875-98.28125c-4.640625-4.375-10.925782-7.054688-17.835938-7.054688zm0 0" fill="#8ac6dd"/><path d="m338.800781 244.4375c-5.382812-5.070312-12.445312-7.867188-19.890625-7.867188h-289.648437c-7.445313 0-14.511719 2.792969-19.890625 7.867188-.628906.589844-.96875 1.417969-.945313 2.28125.027344.855469.421875 1.664062 1.082031 2.210938l144.023438 119.757812c5.667969 4.714844 13.109375 7.070312 20.554688 7.070312 7.445312 0 14.886718-2.359374 20.554687-7.070312l144.019531-119.757812c.660156-.546876 1.054688-1.355469 1.082032-2.210938.027343-.863281-.316407-1.691406-.941407-2.28125zm-147.992187 119.640625c-9.222656 7.667969-24.222656 7.664063-33.441406 0l-141.21875-117.429687c3.816406-2.644532 8.371093-4.074219 13.113281-4.074219h289.648437c4.746094 0 9.296875 1.429687 13.117188 4.074219zm0 0" fill="#3a312a"/><path d="m64.941406 22.351562c-1.949218 23.128907-26.050781 26.78125-26.050781 26.78125 20.691406.972657 25.851563 28.117188 25.851563 28.117188.441406-19.351562 26.640624-28.402344 26.640624-28.402344-19.625-1.175781-26.441406-26.496094-26.441406-26.496094zm0 0" fill="#d7e057"/><path d="m91.5625 45.851562c-17.207031-1.03125-23.664062-24.046874-23.726562-24.28125-.378907-1.40625-1.703126-2.328124-3.167969-2.207031-1.449219.132813-2.59375 1.285157-2.714844 2.734375-1.722656 20.429688-22.628906 23.929688-23.511719 24.066406-1.527344.230469-2.625 1.582032-2.546875 3.121094.082031 1.542969 1.316407 2.769532 2.855469 2.84375 18.058594.851563 23 25.4375 23.046875 25.6875.273437 1.421875 1.519531 2.433594 2.945313 2.433594.082031 0 .167968-.003906.25-.011719 1.53125-.128906 2.714843-1.386719 2.75-2.917969.386718-17.019531 24.382812-25.554687 24.628906-25.640624 1.351562-.464844 2.183594-1.828126 1.988281-3.242188-.199219-1.417969-1.367187-2.5-2.796875-2.585938zm-27.128906 20.695313c-2.714844-6.265625-7.421875-13.816406-15.179688-17.753906 5.863282-2.8125 12.820313-7.828125 16.40625-16.546875 3.101563 6.140625 8.398438 13.757812 16.667969 17.445312-6.015625 3.277344-13.84375 8.808594-17.894531 16.855469zm0 0" fill="#3a312a"/><path d="m21.542969 56.316406c-1.378907 16.355469-18.421875 18.941406-18.421875 18.941406 14.632812.6875 18.28125 19.886719 18.28125 19.886719.3125-13.6875 18.84375-20.089843 18.84375-20.089843-13.882813-.832032-18.703125-18.738282-18.703125-18.738282zm0 0" fill="#d7e057"/><path d="m40.425781 72.058594c-11.535156-.691406-15.945312-16.371094-15.984375-16.53125-.382812-1.402344-1.722656-2.3125-3.164062-2.203125-1.453125.132812-2.601563 1.285156-2.722656 2.738281-1.15625 13.742188-15.292969 16.128906-15.886719 16.226562-1.523438.230469-2.6250002 1.578126-2.542969 3.121094.078125 1.539063 1.3125 2.769532 2.855469 2.839844 12.070312.570312 15.445312 17.292969 15.476562 17.457031.273438 1.425781 1.519531 2.4375 2.945313 2.4375.082031 0 .167968-.003906.25-.007812 1.53125-.128907 2.71875-1.386719 2.753906-2.921875.257812-11.417969 16.660156-17.269532 16.824219-17.324219 1.351562-.46875 2.183593-1.828125 1.992187-3.246094-.199218-1.417969-1.367187-2.5-2.796875-2.585937zm-19.171875 13.589844c-1.847656-3.769532-4.679687-7.890626-8.890625-10.558594 3.710938-2.082032 7.394531-5.257813 9.742188-9.832032 2.113281 3.746094 5.304687 7.910157 9.878906 10.449219-3.695313 2.199219-7.976563 5.476563-10.730469 9.941407zm0 0" fill="#3a312a"/><path d="m21.542969 3c-1.378907 16.355469-18.421875 18.9375-18.421875 18.9375 14.632812.691406 18.28125 19.890625 18.28125 19.890625.3125-13.6875 18.84375-20.089844 18.84375-20.089844-13.882813-.828125-18.703125-18.738281-18.703125-18.738281zm0 0" fill="#d7e057"/><path d="m40.425781 18.746094c-11.535156-.691406-15.945312-16.371094-15.984375-16.53125-.382812-1.402344-1.722656-2.328125-3.164062-2.2031252-1.453125.1289062-2.601563 1.2851562-2.722656 2.7343752-1.15625 13.742187-15.292969 16.132812-15.886719 16.226562-1.523438.234375-2.6250002 1.582032-2.542969 3.121094.078125 1.542969 1.3125 2.769531 2.855469 2.84375 12.070312.566406 15.445312 17.289062 15.476562 17.453125.273438 1.425781 1.519531 2.441406 2.945313 2.441406.082031 0 .167968-.003906.25-.011719 1.53125-.125 2.71875-1.386718 2.753906-2.921874.257812-11.417969 16.660156-17.265626 16.824219-17.324219 1.351562-.46875 2.183593-1.824219 1.992187-3.242188-.199218-1.421875-1.367187-2.503906-2.796875-2.585937zm-19.171875 13.585937c-1.847656-3.769531-4.679687-7.894531-8.890625-10.558593 3.707031-2.082032 7.390625-5.261719 9.742188-9.832032 2.113281 3.746094 5.304687 7.910156 9.878906 10.449219-3.695313 2.199219-7.976563 5.476563-10.730469 9.941406zm0 0" fill="#3a312a"/><path d="m440.566406 84.726562-19.480468 16.199219v155.960938l19.480468 16.199219c3.539063-4.140626 5.519532-9.460938 5.519532-14.941407v-158.480469c0-5.480468-1.980469-10.800781-5.519532-14.9375zm0 0" fill="#ce4e61"/><path d="m420.386719 264.105469c-1.179688 5.101562-3.882813 9.621093-7.582031 13.078125-1.699219 1.601562-3.597657 2.980468-5.679688 4.0625h15.839844c4.761718 0 9.300781-1.441406 13.121094-4.082032zm0 0" fill="#ce4e61"/><path d="m422.964844 76.566406h-15.839844c2.082031 1.078125 3.980469 2.457032 5.679688 4.058594 3.699218 3.460938 6.402343 7.980469 7.582031 13.082031l15.699219-13.0625c-3.820313-2.640625-8.359376-4.078125-13.121094-4.078125zm0 0" fill="#ce4e61"/><path d="m336.503906 250.726562-19.476562 16.199219v155.960938l19.476562 16.199219c3.542969-4.140626 5.523438-9.460938 5.523438-14.941407v-158.480469c0-5.480468-1.980469-10.800781-5.523438-14.9375zm0 0" fill="#68a8bc"/><path d="m316.324219 430.105469c-1.179688 5.101562-3.878907 9.621093-7.578125 13.078125-1.699219 1.601562-3.601563 2.980468-5.679688 4.0625h15.839844c4.738281 0 9.300781-1.441406 13.121094-4.082032zm0 0" fill="#68a8bc"/><path d="m318.90625 242.566406h-15.839844c2.078125 1.078125 3.980469 2.457032 5.679688 4.058594 3.699218 3.460938 6.398437 7.980469 7.578125 13.082031l15.703125-13.0625c-3.820313-2.640625-8.382813-4.078125-13.121094-4.078125zm0 0" fill="#68a8bc"/></svg>