<svg height="499pt" viewBox="0 -97 499.32 499" width="499pt" xmlns="http://www.w3.org/2000/svg"><path d="m495.320312 273.261719v17.296875c0 5.519531-4.480468 10-10 10h-471.320312c-5.519531 0-10-4.480469-10-10v-17.296875c0-5.523438 4.480469-10 10-10h471.320312c5.519532 0 10 4.476562 10 10zm0 0" fill="#1c868e"/><path d="m495.320312 273.261719v13.160156h-467.179687c-5.519531 0-10-4.480469-10-10v-13.160156h467.179687c5.519532 0 10 4.476562 10 10zm0 0" fill="#40c4df"/><path d="m453.460938 14.160156v239.101563c0 5.519531-4.480469 10-10 10h-387.601563c-5.519531 0-10-4.480469-10-10v-239.101563c0-5.519531 4.480469-10 10-10h387.601563c5.519531 0 10 4.480469 10 10zm0 0" fill="#1c868e"/><path d="m453.460938 14.160156v239.101563c0 5.519531-4.480469 10-10 10h-367.601563c-5.519531 0-10-4.480469-10-10v-239.101563c0-5.519531 4.480469-10 10-10h367.601563c5.519531 0 10 4.480469 10 10zm0 0" fill="#40c4df"/><path d="m423.460938 44.160156v179.101563c0 5.519531-4.480469 10-10 10h-327.601563c-5.519531 0-10-4.480469-10-10v-179.101563c0-5.519531 4.480469-10 10-10h327.601563c5.519531 0 10 4.480469 10 10zm0 0" fill="#d8d6d7"/><path d="m423.460938 44.160156v179.101563c0 5.519531-4.480469 10-10 10h-287.601563c-5.519531 0-10-4.480469-10-10v-179.101563c0-5.519531 4.480469-10 10-10h287.601563c5.519531 0 10 4.480469 10 10zm0 0" fill="#fff"/><path d="m445.960938 95.917969v194.601562c0 5.519531-4.480469 10-10 10h-158.882813c-5.519531 0-10-4.480469-10-10v-194.601562c0-5.519531 4.480469-10 10-10h158.882813c5.519531 0 10 4.480469 10 10zm0 0" fill="#56c1b3"/><path d="m445.960938 95.917969v190.460937h-154.742188c-5.519531 0-10-4.480468-10-10v-190.460937h154.742188c5.519531 0 10 4.480469 10 10zm0 0" fill="#7befe4"/><path d="m424.761719 111.058594v142.039062c0 5.519532-4.460938 10-10 10h-116.480469c-5.519531 0-10-4.480468-10-10v-142.039062c0-5.519532 4.480469-10 10-10h116.480469c5.539062 0 10 4.480468 10 10zm0 0" fill="#d8d6d7"/><path d="m424.761719 111.058594v142.039062c0 5.519532-4.460938 10-10 10h-96.480469c-5.519531 0-10-4.480468-10-10v-142.039062c0-5.519532 4.480469-10 10-10h96.480469c5.539062 0 10 4.480468 10 10zm0 0" fill="#fff"/><path d="m366.503906 275.613281h-19.964844c-3.421874 0-6.195312 2.773438-6.195312 6.195313s2.773438 6.199218 6.195312 6.199218h19.964844c3.421875 0 6.195313-2.777343 6.195313-6.199218s-2.773438-6.195313-6.195313-6.195313zm0 0" fill="#fff"/><path d="m495.320312 143.699219v7.917969h-98.71875v-7.917969c0-5.519531 4.476563-10 10-10h78.71875c5.519532 0 10 4.480469 10 10zm0 0" fill="#d73735"/><path d="m495.320312 272.136719v18.421875c0 5.519531-4.480468 10-10 10h-78.71875c-5.523437 0-10-4.480469-10-10v-18.421875zm0 0" fill="#d73735"/><path d="m396.601562 151.617188h98.71875v120.519531h-98.71875zm0 0" fill="#d8d6d7"/><path d="m495.320312 143.699219v7.917969h-78.71875v-7.917969c0-5.519531 4.476563-10 10-10h58.71875c5.519532 0 10 4.480469 10 10zm0 0" fill="#f85252"/><path d="m495.320312 272.136719v18.421875c0 5.519531-4.480468 10-10 10h-58.71875c-5.523437 0-10-4.480469-10-10v-18.421875zm0 0" fill="#f85252"/><path d="m416.601562 151.617188h78.71875v120.519531h-78.71875zm0 0" fill="#fff"/><path d="m453.714844 281.652344h-15.519532c-2.660156 0-4.816406 2.15625-4.816406 4.816406s2.15625 4.816406 4.816406 4.816406h15.519532c2.660156 0 4.816406-2.15625 4.816406-4.816406s-2.15625-4.816406-4.816406-4.816406zm0 0" fill="#fff"/><g fill="#491352"><path d="m453.714844 277.652344h-15.519532c-4.863281 0-8.816406 3.957031-8.816406 8.816406s3.957032 8.816406 8.816406 8.816406h15.519532c4.859375 0 8.816406-3.957031 8.816406-8.816406s-3.957031-8.816406-8.816406-8.816406zm0 9.636718h-15.519532c-.453124 0-.816406-.367187-.816406-.816406 0-.449218.363282-.816406.816406-.816406h15.519532c.449218 0 .816406.367188.816406.816406 0 .449219-.367188.816406-.816406.816406zm0 0"/><path d="m346.539062 292.007812h19.964844c5.621094 0 10.195313-4.574218 10.195313-10.199218 0-5.621094-4.574219-10.195313-10.195313-10.195313h-19.964844c-5.621093 0-10.195312 4.574219-10.195312 10.195313 0 5.625 4.574219 10.199218 10.195312 10.199218zm0-12.390624h19.964844c1.207032 0 2.195313.984374 2.195313 2.195312s-.984375 2.195312-2.195313 2.195312h-19.964844c-1.210937 0-2.195312-.984374-2.195312-2.195312s.984375-2.195312 2.195312-2.195312zm0 0"/><path d="m499.3125 273.171875v-129.464844c0-7.71875-6.277344-14-14-14h-27.851562v-115.546875c0-7.71875-6.28125-14-14-14h-387.601563c-7.71875 0-14 6.28125-14 14v239.101563c0 2.144531.503906 4.175781 1.371094 6h-29.230469c-7.71875 0-14 6.28125-14 14v17.296875c0 7.71875 6.28125 14 14 14h392.519531c.023438 0 .050781.003906.078125.003906h78.714844c2.414062 0 4.691406-.613281 6.671875-1.695312 4.367187-2.375 7.335937-7 7.335937-12.308594v-17.296875c0-.035157-.007812-.058594-.007812-.089844zm-13.992188 23.386719h-78.765624c-3.289063-.019532-5.960938-2.699219-5.960938-5.996094v-14.425781h90.71875v14.425781c0 2.070312-1.050781 3.894531-2.648438 4.976562-.953124.644532-2.105468 1.019532-3.34375 1.019532zm-43.359374-166.851563h-13.199219v-18.648437c0-7.699219-6.269531-14-14-14h-116.480469c-7.722656 0-14 6.285156-14 14v142.042968c0 7.71875 6.277344 14 14 14h94.3125v23.460938c0 2.132812.496094 4.148438 1.351562 5.960938h-116.867187c-3.304687 0-6-2.695313-6-6v-194.601563c0-3.308594 2.695313-6 6-6h158.882813c3.308593 0 6 2.691406 6 6zm49.351562 138.429688h-90.714844v-112.511719h90.714844zm-98.71875-124.429688v115.394531h-94.3125c-3.308594 0-6-2.695312-6-6v-142.042968c0-3.304688 2.691406-6 6-6h116.480469c3.453125 0 6 2.828125 6 6v18.648437h-14.167969c-7.71875 0-14 6.28125-14 14zm26.867188-61.785156h-142.382813c-7.71875 0-14 6.28125-14 14v133.339844h-177.21875c-3.308594 0-6-2.695313-6-6v-179.101563c0-3.308594 2.691406-6 6-6h327.601563c3.308593 0 6 2.691406 6 6zm71.851562 61.785156v3.917969h-90.714844v-3.917969c0-3.308593 2.691406-6 6-6h78.714844c3.308594 0 6 2.691407 6 6zm-441.453125 109.554688v-239.101563c0-3.308594 2.691406-6 6-6h387.601563c3.308593 0 6 2.691406 6 6v78.109375c-1.613282-5.953125-7.046876-10.347656-13.5-10.347656h-8.5v-37.761719c0-7.71875-6.28125-14-14-14h-327.601563c-7.71875 0-14 6.28125-14 14v179.101563c0 7.714843 6.28125 14 14 14h177.21875v22h-207.21875c-3.308594 0-6-2.695313-6-6zm-41.859375 37.296875v-17.296875c0-3.308594 2.691406-6 6-6h249.078125v23.261719c0 2.164062.511719 4.207031 1.390625 6.039062h-250.46875c-3.308594-.003906-6-2.695312-6-6.003906zm0 0"/></g></svg>