<svg height="511pt" viewBox="-23 0 511 511.29134" width="511pt" xmlns="http://www.w3.org/2000/svg"><path d="m461.898438 197.464844c-8.460938 31.261718-41.480469 124.839844-142.402344 173.859375-11.699219 5.703125-24.296875 10.78125-37.878906 15.101562-1.398438.441407-2.859376.660157-4.320313.660157h-56.699219v-246.71875l70.160156 13.421874 163.359376 31.238282c5.71875 1.097656 9.300781 6.820312 7.78125 12.4375zm0 0" fill="#f85252"/><path d="m390.457031 295.085938c0 5.078124-1.578125 10.101562-4.601562 14.320312-1.519531 2.140625-3.4375 4.078125-5.699219 5.699219-6.21875 4.441406-13.800781 5.582031-20.660156 3.742187-5.320313-1.421875-10.199219-4.621094-13.640625-9.441406l-26.359375-36.71875v98.636719c-11.699219 5.703125-24.296875 10.78125-37.878906 15.101562-1.398438.441407-2.859376.660157-4.320313.660157h-56.699219v-246.71875l70.160156 13.421874c6.28125 4.757813 11.738282 10.5 16.179688 17.019532l78.917969 109.980468c3.101562 4.335938 4.601562 9.335938 4.601562 14.296876zm0 0" fill="#d73735"/><path d="m244.878906 71.546875c0 30.339844-20.023437 56-47.5625 64.519531-3.039062.941406-6.160156 1.679688-9.359375 2.179688-3.460937.558594-7.019531.839844-10.640625.839844-37.300781 0-67.539062-30.238282-67.539062-67.539063s30.238281-67.539063 67.539062-67.539063c3.621094 0 7.179688.277344 10.640625.839844 3.199219.5 6.320313 1.238282 9.359375 2.179688 27.539063 8.519531 47.5625 34.179687 47.5625 64.519531zm0 0" fill="#edaf85"/><path d="m244.878906 71.546875c0 30.339844-20.023437 56-47.5625 64.519531-3.039062.941406-6.160156 1.679688-9.359375 2.179688-32.21875-5.121094-56.859375-33.039063-56.859375-66.699219s24.640625-61.582031 56.859375-66.699219c3.199219.5 6.320313 1.238282 9.359375 2.179688 27.539063 8.519531 47.5625 34.179687 47.5625 64.519531zm0 0" fill="#f7c09a"/><path d="m350.457031 295.085938c0 5.078124-1.578125 10.101562-4.601562 14.320312-1.519531 2.140625-3.4375 4.078125-5.699219 5.699219-1.378906.980469-2.820312 1.800781-4.320312 2.460937-1.757813.800782-3.578126 1.359375-5.417969 1.679688-3.640625.699218-7.378907.558594-10.921875-.398438-5.320313-1.421875-10.199219-4.621094-13.640625-9.441406l-26.359375-36.71875v104.398438c0 5.519531-4.480469 10-10 10h-29.519532v88.921874c0 8.65625-3.5 16.476563-9.179687 22.136719-.679687.679688-1.398437 1.339844-2.140625 1.960938-2.917969 2.441406-6.300781 4.339843-9.980469 5.582031-3.136719 1.058594-6.519531 1.636719-10.019531 1.636719-4 0-7.800781-.738281-11.320312-2.117188-3.738282-1.441406-7.136719-3.582031-10.019532-6.28125-6.160156-5.699219-10-13.859375-10-22.917969 0 8.65625-3.5 16.476563-9.179687 22.136719-.679688.679688-1.398438 1.339844-2.140625 1.960938-2.917969 2.441406-6.296875 4.359375-10 5.582031-3.117188 1.058594-6.480469 1.636719-10 1.636719-4 0-7.820313-.738281-11.339844-2.117188-11.71875-4.542969-20-15.902343-20-29.199219v-88.921874h-29.519531c-5.519531 0-10-4.480469-10-10v-104.398438l-26.359375 36.71875c-2.640625 3.699219-6.140625 6.441406-10.019532 8.160156-5.800781 2.578125-12.460937 2.839844-18.519531.597656-2-.738281-3.941406-1.757812-5.761719-3.058593-11.039062-7.898438-13.597656-23.257813-5.699218-34.320313l79-110.078125c13.058594-19.082031 35-31.621093 59.878906-31.621093h59.320312c24.921876 0 46.902344 12.578124 59.960938 31.71875l78.917969 109.980468c3.101562 4.339844 4.601562 9.339844 4.601562 14.300782zm0 0" fill="#1c868e"/><path d="m279.496094 377.085938v-104.398438l26.359375 36.71875c3.441406 4.820312 8.320312 8.019531 13.640625 9.441406 3.542968.957032 7.28125 1.097656 10.921875.398438 1.839843-.320313 3.660156-.878906 5.417969-1.679688 1.5-.660156 2.941406-1.480468 4.320312-2.460937 2.261719-1.621094 4.179688-3.558594 5.699219-5.699219 3.023437-4.21875 4.601562-9.242188 4.601562-14.320312 0-4.960938-1.5-9.960938-4.601562-14.300782l-78.917969-109.980468c-13.058594-19.140626-35.039062-31.71875-59.960938-31.71875h-39.320312c-24.878906 0-46.820312 12.539062-59.878906 31.621093l-79 110.078125c-7.898438 11.0625-5.339844 26.421875 5.699218 34.320313 1.359376.980469 2.800782 1.800781 4.28125 2.460937 3.878907-1.71875 7.378907-4.460937 10.019532-8.160156l26.359375-36.71875h10c5.523437 0 10 4.476562 10 10v94.398438c0 5.523437 4.480469 10 10 10h19.519531c5.523438 0 10 4.476562 10 10v108.121093c3.519531 1.378907 7.339844 2.117188 11.339844 2.117188 3.519531 0 6.882812-.578125 10-1.636719 3.703125-1.222656 7.082031-3.140625 10-5.582031.742187-.621094 1.460937-1.28125 2.140625-1.960938 5.679687-5.660156 9.179687-13.480469 9.179687-22.136719 0 9.058594 3.839844 17.21875 10 22.917969 2.882813 2.699219 6.28125 4.839844 10.019532 6.28125 3.519531 1.378907 7.320312 2.117188 11.320312 2.117188 3.5 0 6.882812-.578125 10.019531-1.636719 3.679688-1.242188 7.0625-3.140625 9.980469-5.582031.742188-.621094 1.460938-1.28125 2.140625-1.960938 5.679687-5.660156 9.179687-13.480469 9.179687-22.136719v-88.921874h29.519532c5.519531 0 10-4.480469 10-10zm0 0" fill="#40c4df"/><g fill="#491352"><path d="m454.867188 181.105469c-247.445313-46.96875-233.296876-45.46875-244.914063-45.917969 23.082031-11.886719 38.914063-35.941406 38.914063-63.640625 0-39.449219-32.097657-71.546875-71.546876-71.546875-39.453124 0-71.546874 32.097656-71.546874 71.546875 0 27.699219 15.832031 51.753906 38.910156 63.640625-24.128906.933594-46.46875 13.195312-60.15625 33.1875l-79.007813 110.089844c-14.730469 20.605468 2.875 49.003906 27.949219 44.835937 18.015625-2.992187 21.425781-18.273437 37.671875-38.1875v91.980469c0 7.71875 6.277344 14 14 14h25.515625v84.914062c0 36.628907 49.527344 49.125 66.664062 16.261719 17.144532 32.867188 66.65625 20.363281 66.65625-16.261719v-84.914062c1.089844 0 34.175782 0 33.3125 0 1.898438 0 3.765626-.289062 5.546876-.855469 133.007812-42.289062 173.636718-157.449219 182.917968-191.734375 2.125-7.851562-2.882812-15.867187-10.886718-17.398437zm-341.09375-109.558594c0-35.039063 28.507812-63.546875 63.546874-63.546875 35.039063 0 63.546876 28.507812 63.546876 63.546875 0 35.042969-28.507813 63.546875-63.546876 63.546875-35.039062 0-63.546874-28.503906-63.546874-63.546875zm59.542968 404.460937c0 15.0625-12.253906 27.316407-27.320312 27.316407-15.074219 0-27.339844-12.253907-27.339844-27.316407v-84.914062h54.660156zm62.660156 0c0 15.0625-12.253906 27.316407-27.320312 27.316407-15.074219 0-27.339844-12.253907-27.339844-27.316407v-84.914062h54.660156zm42.300782-207.128906c-5.300782 1.707032-1.679688 3.085938-2.777344 108.214844 0 3.304688-2.691406 6-6 6-23.515625 0-161.25 0-184.363281 0-3.308594 0-6-2.695312-6-6-1.089844-104.917969 2.53125-106.519531-2.773438-108.222656-1.648437-.53125-3.460937.058594-4.476562 1.476562l-26.355469 36.726563c-6.617188 9.253906-19.472656 11.394531-28.730469 4.773437-9.265625-6.625-11.386719-19.480468-4.777343-28.722656l79.054687-110.15625c12.804687-18.707031 33.953125-29.875 56.574219-29.875h59.332031c22.671875 0 43.847656 11.203125 56.699219 30.050781l78.921875 109.972657c3.203125 4.476562 4.464843 9.925781 3.5625 15.351562-2.980469 17.941406-26.367188 23.566406-37.070313 8.597656-26.363281-35.007812-25.796875-39.789062-30.820312-38.1875zm179.753906-72.46875c-8.964844 33.109375-48.027344 143.832032-175.390625 185.46875 1.625-4.449218.546875-1.765625.859375-96.757812 16.292969 19.96875 19.65625 35.1875 37.667969 38.179687 25.265625 4.210938 42.601562-24.339843 27.945312-44.835937-85.265625-118.808594-82.914062-117.933594-95.917969-127.796875 210.394532 40.972656 201.5 36.792969 204.132813 41.011719.894531 1.425781 1.144531 3.105468.703125 4.730468zm0 0"/><path d="m154.773438 243 32.460937-55.308594c2.679687-4.558594-4.222656-8.621094-6.898437-4.046875-36.046876 62.902344-38.195313 61.542969-36.019532 65.34375 2.09375 3.65625 2.613282 1.273438 54.675782 2.011719l-33.265626 45.644531c-3.121093 4.277344 3.347657 8.988281 6.460938 4.710938 38.144531-53.746094 40.273438-52.160157 38.234375-56.167969-2.101563-4.132812-4.394531-1.398438-55.648437-2.1875zm0 0"/></g></svg>